<!DOCTYPE svg PUBLIC "-//W3C//DTD SVG 20010904//EN" "http://www.w3.org/TR/2001/REC-SVG-20010904/DTD/svg10.dtd">
<svg version="1.0" xmlns="http://www.w3.org/2000/svg" width="870px" height="140px" viewBox="0 0 8700 1400" preserveAspectRatio="xMidYMid meet">
<g id="layer101" fill="#4285f4" stroke="none">
 <path d="M106 1271 c-3 -6 72 -501 144 -958 l33 -203 133 0 c74 0 134 2 134 4 0 8 170 1061 175 1083 5 23 2 24 -131 37 l-52 5 -11 -82 c-18 -122 -15 -117 -74 -117 -29 0 -75 3 -103 6 l-52 7 -13 100 c-14 100 -14 101 -44 108 -44 10 -135 17 -139 10z m335 -397 l45 -6 -23 -152 c-12 -83 -30 -203 -39 -266 l-18 -115 -37 255 c-21 140 -38 263 -38 273 -1 19 30 22 110 11z"/>
 <path d="M8495 1268 c-43 -5 -81 -10 -83 -12 -2 -2 -34 -104 -72 -227 -39 -128 -71 -217 -74 -208 -4 8 -36 103 -71 210 l-65 194 -80 -1 c-44 -1 -83 -4 -87 -7 -3 -4 38 -133 92 -287 l97 -281 -87 -257 c-49 -141 -90 -263 -93 -270 -3 -9 19 -12 92 -12 l96 0 62 195 c34 107 65 192 69 187 4 -4 34 -90 67 -192 l60 -185 87 -3 c68 -2 86 0 83 10 -3 7 -44 131 -92 275 l-87 261 95 299 c53 164 96 304 96 311 0 6 -6 11 -12 11 -7 -1 -49 -6 -93 -11z"/>
 <path d="M935 1201 c-45 -12 -69 -27 -103 -65 -36 -41 -48 -81 -58 -188 l-7 -78 39 0 c22 0 63 -3 92 -6 l52 -7 0 67 c0 58 3 70 25 91 26 27 46 30 92 15 36 -13 53 -46 53 -101 0 -66 -25 -103 -150 -219 -145 -136 -179 -192 -187 -309 -8 -107 15 -181 70 -237 49 -49 94 -64 193 -64 159 0 232 63 254 221 6 40 8 74 6 77 -3 2 -43 7 -90 9 l-86 6 0 -52 c0 -42 -5 -57 -25 -76 -55 -56 -145 -10 -145 74 0 64 24 97 164 236 163 161 182 194 180 320 -2 136 -44 214 -137 260 -59 28 -174 42 -232 26z"/>
 <path d="M7728 1203 l-38 -4 0 -545 0 -544 95 0 95 0 0 550 0 550 -57 -2 c-32 -1 -75 -3 -95 -5z"/>
 <path d="M7330 1175 c-91 -7 -168 -13 -172 -14 -5 -1 -8 -237 -8 -526 l0 -525 90 0 90 0 0 449 0 449 31 6 c17 3 55 6 84 6 29 0 80 3 114 6 l61 7 0 78 0 79 -62 -1 c-35 -1 -137 -8 -228 -14z"/>
 <path d="M1530 710 l0 -450 -90 0 -90 0 0 -75 0 -75 275 0 275 0 0 75 0 75 -90 0 -90 0 0 444 0 443 -37 7 c-21 3 -64 6 -95 6 l-58 0 0 -450z"/>
 <path d="M6840 1144 c-107 -7 -214 -13 -237 -13 l-43 -1 0 -510 0 -510 245 0 245 0 0 75 0 75 -152 0 -153 0 0 134 0 134 123 7 122 7 0 74 0 74 -119 0 -120 0 -3 144 -3 144 44 6 c24 3 76 6 115 6 39 0 88 3 109 6 l37 7 0 78 c0 44 -3 78 -7 78 -5 -1 -96 -8 -203 -15z"/>
 <path d="M1970 624 l0 -514 245 0 245 0 0 69 0 68 -92 7 c-50 3 -120 6 -155 6 l-63 0 0 136 0 136 123 -3 122 -4 3 71 3 71 -47 7 c-26 3 -82 6 -125 6 l-79 0 0 147 0 146 155 -6 156 -6 -3 77 -3 77 -155 7 c-85 3 -194 9 -242 11 l-88 6 0 -515z"/>
 <path d="M2560 608 l0 -503 197 5 c193 5 199 6 244 32 67 39 83 78 87 212 4 128 -11 180 -64 224 l-34 28 25 14 c14 8 36 30 48 49 19 31 22 55 28 206 4 93 10 179 14 191 6 20 2 21 -82 27 -54 4 -91 3 -98 -4 -5 -5 -12 -83 -15 -172 -3 -102 -10 -170 -18 -184 -13 -24 -67 -43 -119 -43 l-33 0 0 204 0 204 -31 6 c-17 3 -58 6 -90 6 l-59 0 0 -502z m323 -96 c20 -20 22 -33 22 -117 0 -119 -13 -136 -105 -143 l-60 -4 0 147 0 147 60 -4 c45 -3 66 -10 83 -26z"/>
 <path d="M5958 1103 l-48 -4 0 -495 0 -494 184 0 c237 0 282 15 326 106 18 37 23 64 23 137 0 107 -18 163 -67 203 -24 20 -28 27 -16 31 28 11 79 74 90 111 13 48 13 226 0 274 -14 50 -55 97 -105 119 -34 16 -64 18 -190 17 -82 -1 -171 -3 -197 -5z m299 -166 c14 -13 19 -38 21 -100 6 -139 -24 -177 -140 -177 l-38 0 0 151 0 151 70 -4 c49 -2 75 -9 87 -21z m-48 -438 c17 -6 36 -19 41 -29 14 -26 13 -144 -2 -174 -12 -28 -58 -46 -115 -46 l-33 0 0 130 0 130 39 0 c21 0 52 -5 70 -11z"/>
 <path d="M5416 1080 c-63 -25 -111 -72 -133 -129 -16 -40 -18 -84 -18 -356 0 -352 4 -375 75 -439 48 -43 92 -56 194 -56 98 0 145 14 195 57 72 61 76 84 76 443 0 338 -3 362 -52 421 -44 52 -97 72 -198 76 -72 3 -100 -1 -139 -17z m187 -161 c15 -19 17 -50 17 -321 0 -176 -4 -307 -10 -318 -24 -44 -126 -45 -150 0 -14 26 -13 605 1 631 23 43 109 48 142 8z"/>
 <path d="M3202 600 l3 -491 90 -2 90 -2 0 490 0 490 -93 3 -92 3 2 -491z"/>
 <path d="M3470 1071 c0 -5 43 -119 95 -253 l96 -245 -91 -227 c-49 -126 -90 -232 -90 -236 0 -14 177 -12 187 2 4 7 35 87 69 177 l60 163 38 -98 c21 -55 51 -134 68 -177 l29 -77 79 0 c43 0 81 4 84 8 3 5 -36 111 -86 236 l-90 228 96 244 c53 134 96 248 96 254 0 6 -38 10 -95 10 -90 0 -96 -1 -103 -22 -57 -159 -128 -348 -132 -348 -3 0 -36 83 -74 185 l-68 185 -84 0 c-46 0 -84 -4 -84 -9z"/>
 <path d="M4512 1073 l-72 -4 2 -482 3 -482 240 0 240 0 3 73 3 72 -151 0 -150 0 0 130 0 130 120 0 120 0 0 70 0 70 -120 0 -120 0 0 140 0 140 150 0 150 0 0 75 0 75 -172 -2 c-95 -1 -206 -4 -246 -5z"/>
 </g>

</svg>